<svg preserveAspectRatio="none" width="100%" height="100%" overflow="visible" style="display: block;" viewBox="0 0 70.1296 70" fill="none" xmlns="http://www.w3.org/2000/svg">
<g id="SVG">
<path id="Vector" d="M54.045 25.1765C53.9505 25.6022 53.6263 25.9397 53.205 26.0519C52.421 26.2612 51.6589 26.5464 50.9299 26.9032C50.3483 27.1793 49.7902 27.5034 49.2615 27.8719C49.0398 28.0231 48.8182 28.1747 48.6083 28.3382C48.2585 28.6068 47.9082 28.8984 47.5701 29.19L46.6483 30.1118C46.6483 30.1235 46.6366 30.1347 46.6248 30.1465C46.4267 30.3681 46.2168 30.5898 46.0181 30.8231C46.0181 30.8349 46.0064 30.8466 45.9834 30.8584C45.3938 31.582 44.8555 32.3457 44.3732 33.1452C44.2686 33.2969 44.1869 33.4486 44.0934 33.6115C43.8018 34.1252 43.5332 34.6502 43.2651 35.2099C43.2181 35.3268 43.1716 35.4315 43.1134 35.5485C42.8448 36.1552 42.6002 36.7966 42.3785 37.4503C42.2733 37.7766 42.1681 38.0917 42.0752 38.4185C41.8883 39.0717 41.7131 39.7483 41.5732 40.4485C41.515 40.7636 41.445 41.0781 41.3985 41.405C41.3515 41.7318 41.2933 42.0351 41.2581 42.3502C41.2116 42.6183 41.1769 42.8864 41.1534 43.1551C41.1182 43.5049 41.0835 43.8664 41.06 44.2285C41.0252 44.6483 41.0017 45.0686 40.99 45.5001H66.6216C66.4934 35.525 64.6498 28.6885 61.3136 25.4681L64.0784 17.1849C64.2957 16.6199 64.8645 16.2711 65.4669 16.3331C67.8515 16.3309 69.851 14.5312 70.1031 12.1594C70.3546 9.78767 68.7781 7.60819 66.4469 7.1051C65.8087 6.96518 65.1481 6.96518 64.5099 7.1051C64.0981 7.19482 63.6741 7.01752 63.4482 6.66183C62.3592 5.09117 60.4227 4.34349 58.561 4.77448C56.6993 5.20493 55.2883 6.72752 54.9999 8.61702C54.7121 10.506 55.6045 12.38 57.2531 13.3466C57.7396 13.651 57.949 14.2529 57.7551 14.7934L54.8734 23.3917C54.3121 23.4462 53.755 23.5354 53.205 23.6598C53.3566 23.7885 53.5083 23.905 53.66 24.0331C53.9884 24.3151 54.1364 24.7536 54.045 25.1765ZM59.9603 15.5283C60.4975 13.9491 59.8673 12.2086 58.4435 11.3402C57.6184 10.8579 57.1709 9.92226 57.3129 8.97751C57.4555 8.03276 58.1594 7.27013 59.0897 7.0533C60.0201 6.83594 60.9888 7.20764 61.5352 7.99164C62.293 9.12491 63.6693 9.67659 65.0002 9.38019C65.3201 9.32144 65.648 9.32144 65.9684 9.38019C66.8854 9.589 67.5909 10.3223 67.765 11.2467C67.891 11.9341 67.702 12.6422 67.2501 13.1757C66.7978 13.7087 66.1308 14.0115 65.4317 13.9998C63.838 13.9619 62.3993 14.9493 61.8615 16.45L59.3301 24.0449L59.0849 23.9402C58.8857 23.8451 58.679 23.7672 58.4665 23.7068C58.3848 23.6833 58.3031 23.6481 58.2101 23.6251C58.1167 23.6016 58.0467 23.5781 57.9533 23.5551C57.9041 23.5381 57.8534 23.5263 57.8016 23.5199C57.6499 23.4852 57.4865 23.4499 57.3231 23.4264L59.9603 15.5283Z" fill="var(--fill-0, #F3274C)"/>
<path id="Vector_2" d="M12.325 62.2065C14.4585 62.8554 16.4586 63.8829 18.2285 65.2399C21.1449 67.4098 26.4417 70 35.1335 70C43.8248 70 49.1215 67.4098 52.0386 65.2399C53.8084 63.8829 55.808 62.8554 57.9415 62.2065C61.9085 61.0401 68.7802 57.8432 70.0865 49.56C70.2467 48.5458 69.9557 47.513 69.2892 46.7322C68.6227 45.9514 67.648 45.5012 66.6215 45.5001C66.6333 45.8852 66.6333 46.2702 66.6333 46.6665C66.6333 47.3111 66.111 47.8334 65.4669 47.8334H21.1332C21.1332 48.8636 20.4571 49.772 19.4701 50.0679C18.4827 50.3638 17.4188 49.9771 16.8517 49.1167C16.7988 49.0388 16.7358 48.9683 16.6647 48.9069C16.2284 48.4866 15.5379 48.4866 15.1015 48.9069C15.0305 48.9683 14.968 49.0388 14.9152 49.1167C14.4324 49.8521 13.5763 50.2522 12.7026 50.1512C11.8288 50.0497 11.0865 49.4644 10.7848 48.6382C10.647 48.2558 10.3196 47.9733 9.92172 47.8916C9.52438 47.8201 9.11743 47.9514 8.83652 48.2414C8.40179 48.7242 7.78282 48.9998 7.13341 48.9998C6.01082 48.9891 5.05539 48.1811 4.85832 47.0761C4.66125 45.9717 5.27916 44.8827 6.32858 44.4849C6.71043 44.3471 6.99348 44.0197 7.0752 43.6218C7.1521 43.224 7.02019 42.8143 6.72485 42.5366C6.24207 42.1019 5.96649 41.4829 5.96649 40.8335C5.97076 39.5464 7.01271 38.504 8.29979 38.5002C8.57162 38.5013 8.84026 38.5531 9.0934 38.6519C9.46297 38.7886 9.87633 38.7272 10.1898 38.4885C10.5049 38.2433 10.679 37.8599 10.6566 37.4615C10.6432 37.4203 10.6352 37.3771 10.6331 37.3333C10.6374 36.0462 11.6798 35.0037 12.9669 35C13.7776 35.0016 14.5274 35.4321 14.9381 36.1317C14.8335 36.4932 14.7517 36.8548 14.67 37.2169C14.5883 37.5784 14.5184 37.9282 14.4601 38.2786C14.4511 38.2877 14.4468 38.3005 14.4484 38.3133C14.3902 38.6631 14.3432 39.0134 14.2967 39.3633C14.2615 39.6201 14.2385 39.8765 14.215 40.1334C14.1915 40.3667 14.1798 40.5884 14.1685 40.81C14.1451 41.2068 14.1333 41.6031 14.1333 41.9999C14.1333 42.6445 14.6556 43.1668 15.3002 43.1668C16.2914 43.1721 17.171 43.8039 17.4931 44.7417C17.6223 45.1412 17.9652 45.4344 18.3801 45.5001C18.4757 45.5199 18.574 45.5279 18.6717 45.5231C18.6915 45.5231 18.7112 45.5193 18.7299 45.5119C18.7614 45.514 18.7935 45.5103 18.8234 45.5001H38.6567C38.6684 45.185 38.6802 44.8699 38.7032 44.5666C38.7016 44.5078 38.7053 44.4496 38.7149 44.3914C38.7267 44.0806 38.7502 43.7655 38.7849 43.4467C38.8084 43.1086 38.8431 42.7818 38.8901 42.4549C38.9365 42.1281 38.9718 41.8135 39.0182 41.4867C40.2898 33.2152 44.5602 27.6968 49.3549 25.0948C49.7282 24.8967 50.1015 24.7098 50.4749 24.5469C51.3518 24.157 52.2666 23.8601 53.205 23.6598C49.0607 20.3802 43.9182 18.6183 38.6332 18.6669C28.7168 18.6621 19.7457 24.5485 15.8017 33.6467C14.9947 33.0085 13.9955 32.663 12.9669 32.6667C10.8398 32.6683 8.98338 34.1076 8.45146 36.1669C6.78146 36.1119 5.2092 36.9547 4.33014 38.3758C3.45055 39.7969 3.39874 41.5796 4.19342 43.0499C3.37738 43.7217 2.80754 44.6451 2.57149 45.6747C1.94664 45.8777 1.38962 46.2494 0.961838 46.7482C0.306015 47.5279 0.0208283 48.5538 0.179977 49.56C1.48682 57.8432 8.35854 61.0401 12.325 62.2065ZM35.3316 23.4617C35.6841 22.9255 36.4035 22.7744 36.9418 23.1231C38.6978 24.3023 40.3246 25.6631 41.7948 27.1835C42.0143 27.4014 42.1371 27.6989 42.135 28.0081C42.1323 28.3179 42.0058 28.6132 41.7831 28.8284C41.5662 29.0437 41.2725 29.1654 40.9665 29.1665C40.6541 29.1686 40.3545 29.0421 40.1382 28.8167C38.7753 27.4201 37.2745 26.1656 35.6585 25.0719C35.3995 24.9031 35.2195 24.6377 35.1581 24.3349C35.0967 24.0326 35.1591 23.7175 35.3316 23.4617ZM28.2618 27.4751C28.4001 27.1985 28.6426 26.9891 28.9363 26.8925C29.23 26.7963 29.5499 26.8209 29.825 26.9619C32.7447 28.4498 35.2895 30.5796 37.2681 33.1917C37.4401 33.448 37.5026 33.7626 37.4412 34.0649C37.3798 34.3671 37.1998 34.6326 36.9418 34.8019C36.7538 34.9332 36.5295 35.0027 36.2999 35C35.9095 34.9979 35.5463 34.8008 35.3316 34.475C33.5661 32.209 31.3289 30.3537 28.775 29.0383C28.4984 28.9 28.289 28.657 28.1924 28.3638C28.0962 28.0701 28.1208 27.7502 28.2618 27.4751ZM21.1802 33.5415C21.3356 32.9236 21.9615 32.5481 22.58 32.7014C22.7898 32.7484 27.7486 34.0665 32.6015 41.3585C32.7735 41.6148 32.836 41.9289 32.7746 42.2317C32.7132 42.534 32.5332 42.7994 32.2752 42.9681C32.0873 43.1001 31.8629 43.1695 31.6333 43.1668C31.2429 43.1647 30.8797 42.9676 30.6651 42.6418C26.3483 36.1781 22.055 34.9765 22.0085 34.9648C21.3874 34.7997 21.0168 34.1631 21.1802 33.5415Z" fill="var(--fill-0, #F3274C)"/>
<path id="Vector_3" d="M33.9666 8.16681C33.9666 8.81088 34.4889 9.33319 35.1335 9.33319C35.7776 9.33319 36.2999 8.81088 36.2999 8.16681C36.2999 8.07816 36.2999 8.06641 36.5413 7.82501C37.1282 7.32941 37.4663 6.60042 37.4663 5.83298C37.4663 5.065 37.1282 4.33601 36.5413 3.84041C36.2999 3.59795 36.2999 3.5862 36.2999 3.50021C36.2999 3.4137 36.2999 3.40088 36.5413 3.16055C37.1245 2.66121 37.462 1.93382 37.4668 1.16692C37.4668 0.522308 36.9445 0 36.2999 0C35.6558 0 35.1335 0.522308 35.1335 1.16692C35.1335 1.25397 35.1335 1.26572 34.8916 1.50711C34.3089 2.00592 33.9714 2.73277 33.9666 3.50021C33.9719 4.26659 34.3095 4.99397 34.8916 5.49278C35.1335 5.73204 35.1335 5.74326 35.1335 5.83351C35.1335 5.92323 35.1335 5.93391 34.8916 6.17531C34.31 6.67358 33.9725 7.40044 33.9666 8.16681Z" fill="var(--fill-0, #F3274C)"/>
<path id="Vector_4" d="M26.9667 13.9998C26.9667 14.6444 27.489 15.1667 28.1331 15.1667C28.7777 15.1667 29.3 14.6444 29.3 13.9998C29.3 13.9111 29.3 13.8999 29.5414 13.658C30.1283 13.1624 30.4664 12.4334 30.4664 11.6654C30.4664 10.8974 30.1283 10.1685 29.5414 9.67285C29.3 9.43253 29.3 9.42078 29.3 9.33319C29.3 9.24561 29.3 9.23439 29.5414 8.99406C30.1241 8.49472 30.4616 7.76733 30.4669 6.99989C30.4669 6.35582 29.9441 5.83351 29.3 5.83351C28.6554 5.83351 28.1331 6.35582 28.1331 6.99989C28.1331 7.08748 28.1331 7.09923 27.8917 7.33955C27.3053 7.83516 26.9667 8.56361 26.9667 9.33159C26.9667 10.0996 27.3053 10.828 27.8917 11.3236C28.1331 11.5661 28.1331 11.5778 28.1331 11.6665C28.1331 11.7551 28.1331 11.7669 27.8917 12.0083C27.3096 12.5071 26.9726 13.2334 26.9667 13.9998Z" fill="var(--fill-0, #F3274C)"/>
<path id="Vector_5" d="M40.9665 13.9998C40.9665 14.6444 41.4888 15.1667 42.1334 15.1667C42.7775 15.1667 43.2998 14.6444 43.2998 13.9998C43.2998 13.9111 43.2998 13.8999 43.5417 13.658C44.1281 13.1624 44.4667 12.4334 44.4667 11.6654C44.4667 10.8974 44.1281 10.1685 43.5417 9.67285C43.2998 9.43253 43.2998 9.42078 43.2998 9.33319C43.2998 9.24561 43.2998 9.23439 43.5417 8.99406C44.1244 8.49472 44.4619 7.76733 44.4667 6.99989C44.4667 6.35582 43.9444 5.83351 43.2998 5.83351C42.6557 5.83351 42.1334 6.35582 42.1334 6.99989C42.1334 7.08748 42.1334 7.09923 41.892 7.33955C41.3051 7.83516 40.967 8.56361 40.967 9.33159C40.967 10.0996 41.3051 10.828 41.892 11.3236C42.1334 11.5661 42.1334 11.5778 42.1334 11.6665C42.1334 11.7551 42.1334 11.7669 41.892 12.0083C41.3099 12.5071 40.9724 13.2334 40.9665 13.9998Z" fill="var(--fill-0, #F3274C)"/>
</g>
</svg>
