<svg preserveAspectRatio="none" width="100%" height="100%" overflow="visible" style="display: block;" viewBox="0 0 70 70" fill="none" xmlns="http://www.w3.org/2000/svg">
<g id="SVG">
<path id="Vector" d="M8.9063 66.9628H18.4378C18.5703 67.7932 19.2585 68.4427 20.1276 68.4427H41.7981C42.6704 68.4427 43.3554 67.7964 43.4879 66.9628H53.0194C54.6317 66.9628 55.937 65.6575 55.937 64.0452H5.99192C5.99192 65.6575 7.29725 66.9628 8.9063 66.9628Z" fill="var(--fill-0, #F3274C)"/>
<path id="Vector_2" d="M67.4168 36.9758C64.9871 35.0081 61.5654 34.9758 59.3134 35.2246C59.378 33.6543 59.4136 32.0485 59.4136 30.378H0.00161489C0.00161489 46.4362 2.43134 58.0226 17.8078 62.3457H41.6074C47.6979 60.6365 51.7367 57.7641 54.4152 53.9451C60.2504 53.832 69.6365 51.5347 69.9887 43.4766C70.1405 39.9483 68.6737 37.9903 67.4168 36.9758ZM56.8611 49.3376C57.979 46.4653 58.6414 43.2342 59.0065 39.6834C60.5832 39.4249 63.3005 39.2601 64.6737 40.378C64.9257 40.5848 65.7108 41.2246 65.6204 43.2892C65.4362 47.4637 60.2536 48.8659 56.8611 49.3376Z" fill="var(--fill-0, #F3274C)"/>
<path id="Vector_3" d="M24.2052 28.1228C24.2052 28.1228 35.5137 27.2924 30.3312 17.7577C26.1696 10.1034 27.1195 5.61228 32.4443 1.55412C32.4443 1.55412 15.0032 5.99677 25.1745 19.7447C28.9063 25.7351 24.2052 28.1228 24.2052 28.1228Z" fill="var(--fill-0, #F3274C)"/>
<path id="Vector_4" d="M31.8271 27.3603C31.8271 27.3603 40.8869 25.4507 35.9564 18.1648C34.1664 15.0048 36.6349 13.8772 36.6349 13.8772C36.6349 13.8772 30.8029 14.0614 33.2649 19.0727C35.2359 23.1018 34.6511 25.3893 31.8271 27.3603Z" fill="var(--fill-0, #F3274C)"/>
</g>
</svg>
