<svg preserveAspectRatio="none" width="100%" height="100%" overflow="visible" style="display: block;" viewBox="0 0 174 114" fill="none" xmlns="http://www.w3.org/2000/svg">
<g id="logo">
<path id="Vector" d="M141.891 54.4645C142.079 54.5325 142.216 54.5666 142.356 54.5804C143.066 54.6506 143.63 54.9413 143.777 55.6893C143.932 56.4823 143.594 57.2299 142.869 57.4056C141.689 57.6914 141.683 58.4416 141.709 59.3554C141.728 60.0013 141.639 60.6502 141.6 61.2979C141.56 61.9648 141.821 62.3884 142.535 62.4484C143.419 62.5226 144.046 62.8866 144.138 63.8633C144.222 64.7553 143.809 65.4288 142.889 65.8699C140.807 66.8689 138.087 65.6113 137.442 63.3675C137.004 61.8455 137.104 60.2886 137.09 58.7379C137.079 57.5383 136.74 57.315 135.602 57.7708C135.002 58.0113 134.438 57.8866 133.884 57.6205C133.289 57.3345 132.673 57.145 132 57.2234C131.703 57.258 131.428 57.3532 131.346 57.6702C131.247 58.0501 131.519 58.2593 131.803 58.3907C132.624 58.7707 133.452 59.1357 134.289 59.4771C135.347 59.9086 136.259 60.4891 136.638 61.6406C137.134 63.1487 136.475 64.7932 134.951 65.5842C132.595 66.8076 130.248 66.525 127.965 65.3292C127.375 65.0198 127.141 64.4603 127.213 63.6898C125.916 65.8107 123.549 66.8223 121.228 66.3313C118.995 65.8591 117.31 63.9297 117.028 61.558C116.748 59.215 116.991 57.0574 118.916 55.3724C120.638 53.8662 123.791 53.8086 125.511 55.3094C127.331 56.8977 126.922 59.5697 124.697 60.606C123.538 61.1453 122.293 61.1973 121.045 61.233C120.853 61.2385 120.655 61.1314 120.468 61.2586C120.695 62.477 122.185 63.3268 123.47 62.9697C123.997 62.8234 124.451 62.5427 124.881 62.2111C126.239 61.1623 126.696 61.2737 127.402 62.8359C128.043 62.1796 128.784 62.2891 129.525 62.5871C130.267 62.8855 131.014 63.125 131.827 63.087C132.153 63.0718 132.478 63.0113 132.588 62.6647C132.705 62.2952 132.411 62.0912 132.153 61.9229C131.602 61.5635 130.962 61.4077 130.348 61.1956C128.342 60.5021 127.377 59.1846 127.566 57.3802C127.731 55.7993 129.32 54.4337 131.194 54.2259C132.543 54.0763 133.841 54.2629 135.111 54.7168C136.258 55.1268 136.971 54.6902 137.114 53.5004C137.278 52.1354 137.997 51.3351 139.129 51.2593C140.151 51.1909 141.216 52.0724 141.553 53.2754C141.66 53.6545 141.747 54.0391 141.891 54.4645ZM121.883 58.5294C122.133 58.4979 122.394 58.5 122.632 58.4268C122.96 58.3254 123.285 58.1492 123.276 57.7462C123.268 57.3359 122.918 57.1963 122.593 57.1018C121.686 56.8379 120.775 57.4127 120.607 58.3489C120.948 58.6059 121.354 58.4989 121.883 58.5294Z" fill="var(--fill-0, white)"/>
<path id="Vector_2" d="M50.119 54.0251C50.1055 53.6106 50.0446 53.351 49.5943 53.3579C47.7452 53.3863 46.711 54.1586 46.1917 55.9339C45.8523 57.0945 45.3337 57.5265 44.12 57.5511C42.6763 57.5803 41.2316 57.5571 39.7873 57.5637C39.08 57.5669 38.6182 57.2465 38.5995 56.5297C38.58 55.7848 39.1065 55.495 39.7693 55.4622C40.504 55.4257 41.2416 55.4516 41.9775 55.4329C42.462 55.4206 42.9315 55.3012 42.9296 54.7059C42.9278 54.1118 42.4549 53.9883 41.9732 53.9793C40.954 53.9604 39.9343 53.9655 38.9148 53.9614C38.54 53.9598 38.1748 53.9211 37.8858 53.6479C37.5455 53.3263 37.4311 52.9393 37.5926 52.4916C37.7592 52.0298 38.1173 51.8494 38.5859 51.8495C39.8887 51.85 41.1914 51.8525 42.4941 51.8537C42.7206 51.854 42.9474 51.8583 43.1737 51.8494C43.6816 51.8294 44.0884 51.6291 44.1073 51.075C44.1275 50.485 43.6592 50.3086 43.1865 50.2974C41.7995 50.2647 40.4114 50.2792 39.0238 50.271C38.7412 50.2694 38.4502 50.2891 38.178 50.2302C37.6456 50.1149 37.356 49.7546 37.3301 49.2082C37.304 48.6569 37.5554 48.2725 38.0974 48.1427C38.4522 48.0577 38.8249 48.0039 39.1889 48.0074C41.2269 48.0267 43.2672 47.9283 45.3023 48.1087C45.8262 48.1552 46.2889 48.0525 46.7477 47.7587C48.312 46.7571 50.1085 46.6437 51.8884 46.532C54.1581 46.3897 56.4285 46.3813 58.5693 47.3094C59.9028 47.8876 61.0414 48.7053 61.4412 50.2196C61.9389 52.1049 60.3555 53.8569 58.4428 53.5469C57.6894 53.4248 56.932 53.3259 56.1815 53.1891C55.5085 53.0664 55.2687 53.3142 55.274 53.9974C55.2946 56.6832 55.275 59.3693 55.2704 62.0553C55.2689 62.9661 55.1577 63.8646 54.8532 64.7231C54.4463 65.8702 53.766 66.2842 52.5007 66.2186C51.471 66.1652 50.8781 65.6403 50.5968 64.4972C50.3803 63.6175 50.2743 62.7178 50.2544 61.8145C50.1976 59.2431 50.1642 56.6712 50.119 54.0251Z" fill="var(--fill-0, white)"/>
<path id="Vector_3" d="M106.303 49.7325C107.197 50.4081 107.656 51.3285 108.102 52.2385C109.13 54.3371 110.116 56.4566 111.183 58.7043C111.603 56.3717 111.674 54.1529 111.914 51.9539C112.018 50.9985 112.13 50.0465 112.367 49.1171C112.663 47.9523 113.495 47.3028 114.546 47.3534C115.615 47.4048 116.429 48.1891 116.636 49.3539C116.802 50.2865 116.667 51.2223 116.592 52.1427C116.276 55.993 115.918 59.8415 115.254 63.6517C114.775 66.3952 112.639 67.1433 110.497 65.3187C108.637 63.734 107.577 61.6036 106.575 59.4412C106.386 59.032 106.215 58.6141 105.944 57.9893C105.689 59.7568 105.472 61.3206 105.235 62.8815C105.146 63.466 105.05 64.0542 104.891 64.6223C104.57 65.7722 103.922 66.2698 102.907 66.2173C102.011 66.171 101.428 65.6127 101.235 64.4869C100.929 62.7002 100.826 60.8923 100.948 59.0847C101.108 56.7237 100.978 54.3356 101.58 52.0132C102.01 50.3528 102.942 49.3948 104.298 49.2499C104.998 49.1752 105.643 49.357 106.303 49.7325Z" fill="var(--fill-0, white)"/>
<path id="Vector_4" d="M68.5729 36.5235C69.5603 37.2807 70.5586 37.9248 71.3316 38.8506C73.3432 41.2595 72.659 45.1496 69.9611 46.5228C68.8146 47.1064 67.6186 47.2128 66.4489 46.6531C65.905 46.3929 65.5469 46.518 65.1647 46.8769C64.7328 47.2827 64.2909 47.6778 63.8551 48.0795C63.245 48.642 62.6673 48.6515 61.9632 48.1557C59.8995 46.7022 57.6181 45.7429 55.0968 45.4244C53.2647 45.193 51.4221 45.2284 49.5905 45.3976C48.8167 45.469 48.45 45.2079 48.3955 44.4825C48.3482 43.8534 48.0362 43.2292 48.3192 42.5552C48.8668 42.5671 49.0355 43.0096 49.2256 43.3512C49.5291 43.8966 49.9493 44.1006 50.5511 44.0387C54.6185 43.6204 58.4201 44.4239 61.9552 46.492C62.8124 46.9935 64.3553 46.2828 64.6151 45.3128C64.7165 44.9342 63.882 43.7435 63.4011 43.654C62.4391 43.4751 61.5655 43.1018 60.7432 42.5842C60.2035 42.2444 59.616 42.1096 58.9688 42.115C57.0446 42.131 55.1824 41.4837 53.2371 41.6036C51.8829 41.687 50.5558 42.0089 49.187 41.9589C46.6777 41.8671 45.3536 40.2372 45.8246 37.7801C46.0549 36.5788 46.8558 35.9136 47.9447 35.5917C48.5957 35.3993 48.9939 35.0558 49.3151 34.4678C50.6485 32.0261 53.535 30.9675 55.5619 31.775C56.014 31.9551 56.3142 31.6935 56.6478 31.4856C58.6425 30.2428 60.7605 29.5898 63.1061 30.2749C65.7151 31.037 67.4835 32.6681 68.1601 35.357C68.2568 35.7412 68.3289 36.1285 68.5729 36.5235ZM47.2103 38.2328C47.0698 39.2892 47.4835 40.211 48.3634 40.4068C50.1374 40.8015 51.8572 40.2873 53.5882 40.0372C53.6082 39.3255 52.9388 38.8368 53.3264 38.1064C54.1319 38.472 54.6251 39.1575 55.2841 39.6168C57.3 41.0222 59.1941 41.2169 60.9934 39.1566C61.1782 38.945 61.3713 38.7252 61.6026 38.5729C62.0988 38.2461 62.3975 38.4194 62.4138 39.0063C62.4297 39.5772 62.157 40.0487 61.848 40.4844C61.5454 40.9112 61.6786 41.2059 62.0103 41.5099C62.8527 42.2819 64.2998 42.4003 65.2501 41.7972C65.5976 41.5767 65.9812 40.9791 66.385 41.4441C66.7369 41.8494 66.1657 42.2367 65.9418 42.6059C65.8544 42.75 65.7427 42.8803 65.6348 43.011C65.429 43.2605 65.4455 43.5184 65.5633 43.8029C66.3523 45.7091 68.596 46.1446 70.0275 44.6652C71.5566 43.0848 71.4548 40.8166 69.7793 39.1363C68.6625 38.0162 68.4036 37.9767 67.0106 38.6985C66.9454 38.7322 66.8511 38.7101 66.7824 38.7134C66.4626 38.4293 66.6242 38.1136 66.7097 37.8347C67.1264 36.4744 66.7101 35.2886 66.0037 34.1413C64.48 31.6665 59.7658 29.8724 56.9773 33.5156C56.8058 33.7397 56.6361 33.9683 56.4398 34.1699C56.0036 34.618 55.5801 34.673 55.3778 33.9827C55.1088 33.065 54.3995 32.9636 53.6389 32.9902C53.1018 33.0089 52.5989 33.2037 52.1171 33.4685C50.5448 34.3328 50.1415 35.8473 49.8538 37.4335C49.7914 37.7776 49.8524 38.1852 49.4006 38.3203C49.1162 38.1842 49.097 37.9112 48.9991 37.6822C48.6583 36.8857 48.1 36.8146 47.5542 37.5106C47.419 37.683 47.3532 37.9097 47.2103 38.2328Z" fill="var(--fill-0, white)"/>
<path id="Vector_5" d="M62.7674 66.3681C61.9398 66.209 61.2042 66.014 60.568 65.5557C59.4072 64.7193 58.7015 63.6518 58.9644 62.1637C59.1899 60.887 60.3439 59.9525 61.8648 59.6654C63.0965 59.4328 64.3268 59.494 65.5674 59.6589C65.5037 58.7516 65.0732 58.3229 64.1825 58.2277C63.4688 58.1515 62.7767 58.283 62.0858 58.4547C60.4568 58.8594 59.4852 58.4676 59.165 57.2986C58.8542 56.1636 59.585 55.0513 61.0189 54.5878C62.5731 54.0855 64.1679 53.8844 65.7818 54.2702C67.8957 54.7755 69.3256 56.0257 69.7239 58.2137C70.1051 60.3073 70.1799 62.4218 69.734 64.5232C69.3868 66.1595 68.2193 66.6666 66.7714 65.8176C66.4682 65.6398 66.2147 65.4535 65.8505 65.7004C64.941 66.317 63.9069 66.4215 62.7674 66.3681ZM64.5667 61.8015C64.3406 61.7992 64.1136 61.7828 63.8886 61.7975C63.3509 61.8326 62.9409 62.0616 62.9127 62.648C62.8827 63.2714 63.359 63.4511 63.8545 63.5327C64.0971 63.5726 64.3649 63.5411 64.6074 63.4836C65.0637 63.3753 65.4984 63.1841 65.5214 62.631C65.5437 62.0963 65.133 61.9314 64.5667 61.8015Z" fill="var(--fill-0, white)"/>
<path id="Vector_6" d="M113.197 71.3946C112.338 70.5796 111.575 69.7645 111.053 68.7392C119.275 73.9045 127.322 73.8212 135.295 68.0789C135.036 69.0564 134.427 69.7629 133.801 70.4236C133.271 70.9837 133.362 71.2927 133.919 71.7749C135.842 73.4392 137.02 75.4994 136.99 78.1177C136.981 78.9318 136.727 79.6709 136.184 80.2976C134.773 81.9232 132.644 81.6902 131.63 79.7958C131.236 79.0605 131.105 78.2485 130.961 77.4427C130.782 76.4358 130.457 75.4775 130.087 74.5267C129.783 73.7454 129.37 73.533 128.523 73.8389C124.493 75.2956 120.485 75.1949 116.53 73.5068C115.322 72.9911 114.225 72.3047 113.197 71.3946Z" fill="var(--fill-0, white)"/>
<path id="Vector_7" d="M98.7344 61.6822C99.543 62.518 99.5709 63.3438 98.8815 64.3002C96.8518 67.116 92.2377 67.0839 90.2219 64.2672C88.666 62.0931 88.4641 57.5098 91.0134 55.3963C92.6767 54.0172 95.5336 53.7961 97.2475 55.1135C98.2255 55.8653 98.8012 56.8579 98.6457 58.1183C98.4847 59.423 97.6382 60.2375 96.4612 60.7057C95.396 61.1294 94.262 61.2013 93.1272 61.2327C92.94 61.2378 92.7359 61.1218 92.5674 61.2955C92.8952 62.5634 94.4019 63.3495 95.705 62.9386C96.2843 62.7559 96.7669 62.4229 97.2183 62.0261C97.6341 61.6606 98.0832 61.3651 98.7344 61.6822ZM95.3178 57.9767C95.5256 57.5567 95.2654 57.3555 94.9424 57.1933C94.0394 56.7394 92.9439 57.3553 92.7918 58.4595C93.6467 58.5061 94.5089 58.7467 95.3178 57.9767Z" fill="var(--fill-0, white)"/>
<path id="Vector_8" d="M75.3176 54.1879C76.5605 54.175 77.7009 54.334 78.7817 54.811C79.2632 55.0234 79.6953 55.3103 79.8247 55.8496C79.9719 56.4635 80.05 57.1155 79.5179 57.593C79.0233 58.0369 78.4126 57.9752 77.8337 57.7586C77.1201 57.4916 76.4357 57.1372 75.6356 57.2105C75.3106 57.2403 74.9837 57.2842 74.8717 57.6295C74.7382 58.0408 75.0402 58.2748 75.3515 58.4183C76.2496 58.8322 77.1606 59.2187 78.071 59.6055C79.3384 60.144 80.1944 60.9976 80.2494 62.4507C80.3073 63.9783 79.5708 65.0708 78.2342 65.6999C75.9085 66.7947 73.6049 66.5111 71.3991 65.3266C70.6075 64.9015 70.4054 63.9322 70.7887 63.0936C71.0938 62.4259 71.7559 62.1814 72.6836 62.4571C73.493 62.6977 74.2552 63.1118 75.1332 63.0817C75.4995 63.0692 75.9314 63.117 76.0504 62.6622C76.1644 62.2266 75.827 61.9776 75.4844 61.8253C74.9694 61.5964 74.4369 61.4033 73.9025 61.2222C71.901 60.5441 70.7853 59.103 71.0084 57.4645C71.2536 55.6634 72.8462 54.3388 74.9071 54.2213C75.0201 54.2148 75.1328 54.2044 75.3176 54.1879Z" fill="var(--fill-0, white)"/>
<path id="Vector_9" d="M81.3643 57.5666C80.47 57.3257 79.9542 56.8481 79.9942 55.9273C80.0308 55.0847 80.5982 54.7587 81.3205 54.6346C81.7299 54.5643 81.9113 54.367 81.9267 53.9651C81.9364 53.712 81.9901 53.4609 82.0107 53.2078C82.0845 52.3052 82.5039 51.6503 83.3868 51.3651C84.2958 51.0716 85.0542 51.3635 85.6844 52.0429C86.1861 52.5838 86.3989 53.2574 86.505 53.9621C86.5635 54.3513 86.6841 54.5654 87.1277 54.5888C87.8655 54.6278 88.4499 54.9283 88.5737 55.7487C88.6914 56.5281 88.2923 57.2872 87.4426 57.5058C86.6035 57.7216 86.498 58.1933 86.5268 58.9161C86.5536 59.5893 86.4694 60.2683 86.4139 60.9431C86.3329 61.9277 86.5705 62.2854 87.5431 62.459C88.2679 62.5883 88.8138 62.8321 88.965 63.6629C89.1228 64.5293 88.8157 65.1552 88.1423 65.6419C86.4122 66.8923 83.3787 66.0024 82.5017 63.9822C82.1842 63.251 82.0245 62.4797 82.0109 61.6769C81.9924 60.5757 81.9495 59.4748 81.9253 58.3736C81.9172 58.004 81.8238 57.7031 81.3643 57.5666Z" fill="var(--fill-0, white)"/>
<path id="Vector_10" d="M81.0814 69.7068C81.6975 69.683 82.2337 69.7096 82.7539 69.8527C83.5746 70.0785 84.0927 71.0342 83.6056 71.7054C83.0786 72.4316 83.2224 72.9667 83.6573 73.586C83.7312 73.6912 83.7394 73.8424 83.7896 74.0117C83.3124 74.2618 82.9634 74.2006 82.7001 73.7582C82.5416 73.4921 82.3908 73.2214 82.2284 72.9577C82.1022 72.7528 81.928 72.6008 81.6705 72.6851C81.4387 72.7609 81.4454 72.9823 81.4352 73.1796C81.4264 73.3483 81.4289 73.5179 81.4134 73.6859C81.3863 73.9786 81.2402 74.1565 80.9243 74.1439C80.6525 74.1332 80.5024 73.9781 80.5008 73.7167C80.4938 72.5345 80.4935 71.3521 80.501 70.1699C80.503 69.8556 80.7217 69.74 81.0814 69.7068ZM82.5505 71.6303C82.8339 71.2403 82.8303 70.8794 82.3714 70.6496C82.1194 70.5234 81.7869 70.4834 81.578 70.7214C81.3331 71.0004 81.3439 71.4018 81.528 71.6748C81.7611 72.0205 82.1314 71.8528 82.5505 71.6303Z" fill="var(--fill-0, white)"/>
<path id="Vector_11" d="M35.7435 53.5868C36.4458 53.7973 36.7677 54.237 36.6475 54.8774C36.5219 55.5464 36.0382 55.8598 35.3593 55.8615C34.7669 55.8631 34.1736 55.879 33.582 55.8555C32.8279 55.8256 32.3091 55.3222 32.3117 54.6643C32.3144 54.0232 32.7816 53.5886 33.5549 53.5653C34.2593 53.5441 34.9652 53.5698 35.7435 53.5868Z" fill="var(--fill-0, white)"/>
<path id="Vector_12" d="M77.4274 70.5931C77.4784 70.1986 77.2975 69.7069 77.8831 69.7117C78.437 69.7164 78.3522 70.1817 78.3565 70.5314C78.3683 71.491 78.3579 72.4508 78.3572 73.4105C78.3568 73.9611 78.1945 74.3261 77.549 74.0678C77.3693 73.9959 77.232 74.0325 77.067 74.0896C76.4423 74.3059 75.8692 74.2222 75.4922 73.6439C75.043 72.9547 75.006 72.2064 75.3989 71.4734C75.7556 70.808 76.3664 70.7358 77.0115 70.914C77.3093 70.9962 77.4408 70.9906 77.4274 70.5931ZM76.5911 71.6581C75.9829 71.9629 76.1026 72.4862 76.2216 72.9817C76.2853 73.2467 76.504 73.4196 76.7991 73.3667C77.1998 73.2949 77.3584 72.9613 77.3808 72.6226C77.4114 72.1589 77.3371 71.6964 76.5911 71.6581Z" fill="var(--fill-0, white)"/>
<path id="Vector_13" d="M64.8595 70.4386C64.8424 69.9516 65.0111 69.7069 65.4429 69.7054C66.0362 69.7032 66.6296 69.7045 67.2228 69.7117C67.5137 69.7152 67.7198 69.8317 67.7072 70.1619C67.6963 70.4485 67.4937 70.544 67.2505 70.5615C66.9408 70.5837 66.6295 70.5831 66.3189 70.5931C66.0258 70.6026 65.838 70.7196 65.8245 71.0441C65.8097 71.4042 65.9914 71.558 66.3322 71.5686C66.5863 71.5765 66.8412 71.578 67.0941 71.6004C67.3738 71.6252 67.594 71.7371 67.5683 72.0691C67.547 72.3434 67.3605 72.4514 67.1078 72.4679C66.9669 72.4772 66.8235 72.4945 66.6845 72.479C66.0358 72.4063 65.7363 72.6499 65.7995 73.3369C65.8308 73.678 65.8984 74.152 65.3289 74.1379C64.7759 74.1241 64.8685 73.6613 64.8637 73.3122C64.8509 72.3814 64.8587 71.4502 64.8595 70.4386Z" fill="var(--fill-0, white)"/>
<path id="Vector_14" d="M51.4299 73.4148C51.4297 72.3499 51.4405 71.3651 51.4269 70.3805C51.4206 69.927 51.594 69.6932 52.0655 69.7011C52.6008 69.71 53.1364 69.6989 53.6716 69.7086C53.9349 69.7133 54.1983 69.7568 54.2183 70.099C54.2415 70.4946 53.9479 70.5449 53.6564 70.5691C53.404 70.5901 53.1498 70.5904 52.8962 70.5953C52.5552 70.6018 52.3729 70.7551 52.3834 71.1127C52.3928 71.4361 52.5903 71.5155 52.8711 71.5767C53.2899 71.6679 54.0296 71.316 54.0429 72.0123C54.0584 72.8213 53.2772 72.4005 52.8531 72.4757C52.1922 72.593 52.3942 73.0763 52.3504 73.4575C52.3144 73.7714 52.3262 74.1173 51.8958 74.1365C51.4481 74.1566 51.438 73.8167 51.4299 73.4148Z" fill="var(--fill-0, white)"/>
<path id="Vector_15" d="M86.8207 73.8283C85.8798 74.3384 85.1151 74.3075 84.5961 73.7561C83.9959 73.1184 84.0045 72.3809 84.336 71.6329C84.6483 70.9284 85.2678 70.7953 85.9635 70.8504C86.6641 70.9059 87.0084 71.3547 87.1642 71.9752C87.3012 72.5207 87.1402 72.847 86.4937 72.82C86.0859 72.8029 85.6536 72.6996 85.2212 72.9766C85.3291 73.4894 85.6879 73.4791 86.0403 73.3511C86.3716 73.2307 86.6541 72.9185 87.0466 73.1801C87.167 73.4373 87.0068 73.6076 86.8207 73.8283ZM85.5098 72.053C85.7334 72.0274 86.0039 72.1553 86.1569 71.8617C86.0076 71.5652 85.7842 71.4485 85.4875 71.6021C85.3162 71.6908 85.1477 71.836 85.5098 72.053Z" fill="var(--fill-0, white)"/>
<path id="Vector_16" d="M56.175 71.6299C55.9337 71.6901 55.7476 71.7477 55.5724 71.8287C55.3083 71.9507 55.0135 72.0947 54.8359 71.7673C54.6954 71.5082 54.9122 71.2796 55.1095 71.1219C55.6271 70.7085 56.2284 70.7488 56.7965 70.944C57.3077 71.1197 57.4775 71.5787 57.4772 72.0981C57.4772 72.1544 57.4802 72.2107 57.4783 72.2668C57.4603 72.7995 57.5591 73.3718 57.3954 73.8556C57.1504 74.5798 56.4776 73.9028 55.9793 74.1225C55.3241 74.4115 54.6452 73.9092 54.6197 73.2846C54.5895 72.544 55.039 72.2373 55.7303 72.1978C55.9248 72.1867 56.1493 72.2046 56.3048 72.1144C56.5927 71.9472 56.5161 71.7607 56.175 71.6299ZM55.778 72.8927C55.5077 73.1791 55.6145 73.3453 55.9587 73.4001C56.1692 73.4336 56.4053 73.3573 56.4227 73.1341C56.4563 72.7013 56.1064 72.8727 55.778 72.8927Z" fill="var(--fill-0, white)"/>
<path id="Vector_17" d="M72.3644 71.0415C73.8041 70.568 74.691 71.0319 74.868 72.2967C74.9667 73.0019 74.7175 73.5978 74.1305 73.9738C73.5694 74.3331 72.9244 74.3193 72.3725 73.9414C71.7569 73.52 71.5725 72.8679 71.6971 72.1527C71.7698 71.7351 71.9508 71.3475 72.3644 71.0415ZM73.5507 71.7126C72.852 71.4973 72.6247 71.8756 72.6175 72.4792C72.6117 72.9617 72.7426 73.4471 73.3406 73.3641C73.9911 73.2738 73.8973 72.6989 73.8591 72.2316C73.8467 72.0798 73.726 71.9368 73.5507 71.7126Z" fill="var(--fill-0, white)"/>
<path id="Vector_18" d="M94.0812 70.8539C95.5119 70.8178 95.7273 71.0275 95.7293 72.3871C95.7297 72.6694 95.7301 72.9517 95.7309 73.234C95.7323 73.805 95.7849 74.3902 94.8706 74.0343C94.6529 73.9495 94.3332 74.1709 94.0585 74.178C93.4433 74.1939 93.006 73.9011 92.9278 73.2714C92.8441 72.5971 93.2851 72.3169 93.8787 72.2078C94.1936 72.1499 94.5686 72.3066 94.8318 71.9216C94.6674 71.5558 94.3754 71.5643 94.0761 71.7009C93.7513 71.8492 93.3447 72.1936 93.1578 71.6944C92.9878 71.2403 93.4798 71.0507 93.851 70.899C93.9025 70.8779 93.9609 70.8738 94.0812 70.8539ZM94.6876 72.8609C94.4016 72.8477 94.0575 72.7056 93.9439 73.1266C93.9033 73.2769 94.0422 73.3813 94.1896 73.3921C94.52 73.4163 94.806 73.3641 94.6876 72.8609Z" fill="var(--fill-0, white)"/>
<path id="Vector_19" d="M43.3158 59.1678C43.7821 59.19 44.193 59.0924 44.5402 59.3387C44.903 59.5961 44.9796 59.9779 44.9093 60.3878C44.8293 60.8543 44.5321 61.1609 44.069 61.2036C43.5127 61.2549 42.9458 61.2652 42.3891 61.2219C41.7311 61.1709 41.3688 60.7817 41.4114 60.1006C41.4523 59.4458 41.8537 59.1724 42.4791 59.1705C42.7317 59.1697 42.9844 59.1687 43.3158 59.1678Z" fill="var(--fill-0, white)"/>
<path id="Vector_20" d="M102.566 72.3087C103.449 72.1569 103.449 72.1569 103.806 71.8278C103.56 71.5 103.271 71.5919 102.992 71.7546C102.713 71.9176 102.448 72.0669 102.129 71.7198C102.35 70.8229 103.051 70.8082 103.772 70.8613C104.463 70.9123 104.755 71.3307 104.74 71.9972C104.736 72.1661 104.74 72.3352 104.739 72.5042C104.735 74.2332 104.735 74.2339 103.028 74.1822C102.525 74.167 102.157 73.931 101.994 73.4556C101.819 72.9429 102.07 72.5903 102.566 72.3087ZM102.989 72.9708C102.855 73.211 102.961 73.3547 103.196 73.3927C103.469 73.4368 103.703 73.3743 103.735 73.0248C103.561 72.7415 103.314 72.8306 102.989 72.9708Z" fill="var(--fill-0, white)"/>
<path id="Vector_21" d="M70.9129 73.6543C70.264 74.2947 69.5556 74.3823 68.8591 73.9689C68.1824 73.5672 67.9974 72.8817 68.1414 72.1279C68.3209 71.1883 68.9198 70.769 69.9139 70.8508C70.733 70.9181 71.2244 71.4834 71.2583 72.3955C71.2743 72.8265 71.214 73.2377 70.9129 73.6543ZM69.0866 72.1361C69.0285 72.417 69.0064 72.6998 69.1277 72.9679C69.2895 73.3254 69.5562 73.5079 69.9438 73.325C70.3116 73.1514 70.3247 72.7963 70.315 72.4484C70.306 72.1262 70.2574 71.8147 69.9049 71.6827C69.5497 71.5497 69.3052 71.7055 69.0866 72.1361Z" fill="var(--fill-0, white)"/>
<path id="Vector_22" d="M99.1573 71.0222C99.3545 71.9221 99.2502 72.768 99.2675 73.6107C99.2717 73.8111 99.2206 74.1055 99.0165 74.0877C98.302 74.0254 97.5581 74.4026 96.8799 74.0165C96.317 73.6961 96.2792 73.1068 96.291 72.5259C96.2985 72.1597 96.2989 71.7933 96.3033 71.427C96.3071 71.1068 96.409 70.8731 96.7863 70.8806C97.1747 70.8883 97.2335 71.1529 97.2377 71.4575C97.2435 71.8802 97.2407 72.303 97.2514 72.7254C97.2601 73.0698 97.3893 73.3613 97.775 73.3658C98.1548 73.3703 98.3095 73.0879 98.3265 72.7446C98.3474 72.3228 98.3436 71.8996 98.3483 71.477C98.3544 70.9408 98.5998 70.7593 99.1573 71.0222Z" fill="var(--fill-0, white)"/>
<path id="Vector_23" d="M106.92 70.8501C107.865 70.7956 108.223 71.2984 108.273 72.081C108.306 72.5877 108.285 73.0982 108.278 73.6069C108.275 73.8808 108.203 74.1226 107.863 74.1344C107.492 74.1474 107.373 73.9105 107.364 73.5912C107.353 73.1675 107.356 72.7433 107.347 72.3195C107.34 71.9893 107.286 71.6643 106.864 71.6614C106.439 71.6584 106.275 71.9506 106.258 72.3308C106.239 72.7542 106.247 73.1787 106.235 73.6024C106.228 73.8745 106.167 74.1206 105.824 74.133C105.454 74.1465 105.333 73.9159 105.323 73.5931C105.315 73.3106 105.307 73.0277 105.313 72.7453C105.325 72.2098 105.205 71.6162 105.398 71.1535C105.663 70.5161 106.391 71.1397 106.92 70.8501Z" fill="var(--fill-0, white)"/>
<path id="Vector_24" d="M88.6723 71.6925C88.7569 72.208 89.1958 72.051 89.4819 72.1684C89.9924 72.378 90.4134 72.6688 90.3356 73.2738C90.2603 73.8599 89.8095 74.1245 89.2577 74.177C88.5232 74.2468 87.846 74.1681 87.5853 73.3059C88.1718 72.6334 88.7778 73.9041 89.3429 73.2393C89.2022 72.8217 88.8053 72.888 88.5093 72.7743C88.0075 72.5816 87.5607 72.3251 87.6449 71.6878C87.7202 71.1178 88.1443 70.9033 88.6589 70.8369C89.2446 70.7612 89.7963 70.8139 90.1647 71.3618C90.2476 71.4851 90.2676 71.6468 90.143 71.7467C89.9533 71.8987 89.7311 71.9229 89.5106 71.7911C89.2565 71.6392 89.0294 71.3414 88.6723 71.6925Z" fill="var(--fill-0, white)"/>
<path id="Vector_25" d="M58.284 73.1094C58.7723 73.1861 59.1555 73.7054 59.6532 73.2505C59.4735 72.793 59.0319 72.8637 58.7212 72.7144C58.2847 72.5045 57.8944 72.2475 57.9769 71.7114C58.0667 71.1276 58.4936 70.8686 59.0692 70.8454C59.7087 70.8196 60.3238 70.8408 60.5645 71.5912C60.0505 72.3758 59.4384 71.0808 58.9099 71.7215C59.1373 72.2132 59.6613 72.0646 60.0038 72.2683C60.4505 72.534 60.8025 72.8299 60.6437 73.411C60.4854 73.9904 59.7815 74.3055 58.9404 74.1764C58.4302 74.0981 58.0212 73.8826 57.9786 73.2984C57.9745 73.2416 58.1342 73.1728 58.284 73.1094Z" fill="var(--fill-0, white)"/>
<path id="Vector_26" d="M35.9082 49.9728C36.4289 50.9212 36.1771 51.5675 35.2587 51.6837C34.6294 51.7633 33.9446 51.8651 33.484 51.2399C33.2523 50.9254 33.2125 50.5698 33.4266 50.215C33.8436 49.5238 34.5248 49.6658 35.1606 49.6678C35.4227 49.6686 35.6536 49.7614 35.9082 49.9728Z" fill="var(--fill-0, white)"/>
<path id="Vector_27" d="M36.9742 59.5827C36.5359 59.5771 36.1608 59.6183 35.8113 59.5425C35.2922 59.4299 34.962 59.0629 35.0042 58.5185C35.0453 57.989 35.3595 57.6455 35.935 57.6269C36.1871 57.6188 36.4399 57.629 36.692 57.6203C37.267 57.6003 37.7967 57.697 37.9151 58.3658C38.0319 59.0259 37.7016 59.4325 36.9742 59.5827Z" fill="var(--fill-0, white)"/>
<path id="Vector_28" d="M90.6425 71.007C90.698 70.9332 90.7227 70.9171 90.7389 70.8948C91.5714 69.7483 91.6068 69.7493 92.4496 70.9562C92.5815 71.145 92.5632 71.3197 92.3962 71.4821C91.7161 72.1433 91.7208 72.8102 92.3834 73.4807C92.516 73.6148 92.5422 73.7733 92.4725 73.943C92.3964 74.1282 92.2271 74.1622 92.0543 74.1615C91.5477 74.1597 91.1023 73.9488 91.0765 73.4318C91.0354 72.6104 90.9722 71.8116 90.6425 71.007Z" fill="var(--fill-0, white)"/>
<path id="Vector_29" d="M110.353 71.5177C109.828 72.1819 109.769 72.8169 110.342 73.4069C110.519 73.5888 110.668 73.7381 110.523 73.9774C110.383 74.2076 110.132 74.1915 109.91 74.1474C109.309 74.0274 109.105 73.5935 109.059 73.036C109.012 72.4622 109.08 71.9085 108.735 71.3351C108.491 70.9307 108.989 70.3731 109.331 70.1095C109.718 69.8113 109.957 70.2028 110.04 70.6212C110.101 70.9299 110.949 70.91 110.353 71.5177Z" fill="var(--fill-0, white)"/>
<path id="Vector_30" d="M62.6371 74.1179C61.64 74.1064 61.3755 73.8507 61.3242 72.9499C61.2945 72.4283 61.3109 71.9323 61.0593 71.4073C60.8284 70.9256 61.279 70.4342 61.6426 70.0758C61.775 69.9452 62.1214 69.9814 62.1999 70.256C62.2917 70.5769 62.4618 70.7651 62.7439 70.947C63.0112 71.1193 62.8814 71.3452 62.6469 71.5532C62.0879 72.049 62.0786 72.914 62.6352 73.4082C62.9093 73.6516 62.9686 73.835 62.6371 74.1179Z" fill="var(--fill-0, white)"/>
<path id="Vector_31" d="M100.706 73.853C100.178 74.3472 99.916 74.158 99.8712 73.5737C99.8349 73.0988 99.8551 72.6194 99.8552 72.142C99.8555 70.7609 99.8668 70.7529 101.199 70.8742C101.372 70.8899 101.539 70.8949 101.606 71.093C101.653 71.2333 101.662 71.4406 101.544 71.4783C100.467 71.822 100.846 72.7246 100.762 73.4486C100.749 73.5601 100.741 73.6721 100.706 73.853Z" fill="var(--fill-0, white)"/>
</g>
</svg>
