<svg preserveAspectRatio="none" width="100%" height="100%" overflow="visible" style="display: block;" viewBox="0 0 10.2566 10.0036" fill="none" xmlns="http://www.w3.org/2000/svg">
<path id="Arrow 1" d="M4.41837 4.36968L4.34726 5.1163L4.41459 5.12271L4.48197 5.11698L4.41837 4.36968ZM6.90937 4.15768L6.97297 4.90498L7.11935 4.89252L7.25021 4.82576L6.90937 4.15768ZM10.2198 3.06408C10.3476 2.67008 10.1318 2.24707 9.73781 2.11928L3.31708 0.0367885C2.92308 -0.0910037 2.50007 0.124807 2.37228 0.518814C2.24449 0.912822 2.4603 1.33582 2.85431 1.46362L8.56162 3.31472L6.71051 9.02203C6.58272 9.41604 6.79853 9.83904 7.19254 9.96684C7.58655 10.0946 8.00955 9.87882 8.13734 9.48481L10.2198 3.06408ZM2.19237 4.15768L1.961 4.8711L2.03931 4.8965L2.12127 4.9043L2.19237 4.15768ZM4.41837 4.36968L4.48197 5.11698L6.97297 4.90498L6.90937 4.15768L6.84577 3.41038L4.35477 3.62238L4.41837 4.36968ZM6.90937 4.15768L7.25021 4.82576L9.84727 3.50077L9.50642 2.8327L9.16558 2.16462L6.56852 3.4896L6.90937 4.15768ZM0.231379 3.52168L0 4.2351L1.961 4.8711L2.19237 4.15768L2.42375 3.44426L0.462757 2.80826L0.231379 3.52168ZM2.19237 4.15768L2.12127 4.9043L4.34726 5.1163L4.41837 4.36968L4.48948 3.62306L2.26348 3.41106L2.19237 4.15768Z" fill="var(--stroke-0, black)"/>
</svg>
