<svg preserveAspectRatio="none" width="100%" height="100%" overflow="visible" style="display: block;" viewBox="0 0 70.0002 70" fill="none" xmlns="http://www.w3.org/2000/svg">
<g id="SVG">
<path id="Vector" d="M65.8003 53.1996H4.20177C1.88627 53.1996 0.00184506 55.084 0.00184506 57.3995C0.00184506 61.2578 3.14055 64.3994 7.00168 64.3994H63.0004C66.8615 64.3994 70.0002 61.2578 70.0002 57.3995C70.0001 55.0839 68.1158 53.1996 65.8003 53.1996Z" fill="var(--fill-0, #F3274C)"/>
<path id="Vector_2" d="M1.47173 30.8001H68.4853C68.8353 30.8001 69.2161 30.6264 69.4766 30.3913C69.7314 30.1589 69.891 29.8425 69.9217 29.5009C70.3754 24.9931 68.7822 20.5832 65.3103 16.7416C59.0944 9.87057 47.4804 5.60064 35.001 5.60064C22.5021 5.60064 10.8768 9.87891 4.66936 16.7668C1.19733 20.6168 -0.387399 25.0322 0.0801861 29.5458C0.153058 30.2569 0.75504 30.8001 1.47173 30.8001ZM53.6093 17.2092C54.1552 16.6633 55.0428 16.6633 55.5889 17.2092L58.3888 20.0091C58.9347 20.5579 58.9347 21.4426 58.3888 21.9887C58.1171 22.2631 57.7588 22.4002 57.4004 22.4002C57.0421 22.4002 56.6836 22.2631 56.4092 21.9887L53.6093 19.1888C53.0634 18.6429 53.0634 17.758 53.6093 17.2092ZM42.4095 22.8091L45.2094 20.0092C45.7554 19.4633 46.6429 19.4633 47.189 20.0092C47.7349 20.558 47.7349 21.4428 47.189 21.9888L44.3891 24.7887C44.1174 25.0631 43.7591 25.2003 43.4007 25.2003C43.0424 25.2003 42.6839 25.0631 42.4095 24.7887C41.8636 24.2427 41.8636 23.3579 42.4095 22.8091ZM34.0098 11.6094C34.5557 11.0635 35.4433 11.0635 35.9894 11.6094L38.7893 14.4093C39.3352 14.9581 39.3352 15.8428 38.7893 16.3889C38.5178 16.6633 38.1593 16.8004 37.8009 16.8004C37.4426 16.8004 37.0841 16.6633 36.8097 16.3889L34.0098 13.589C33.4637 13.0429 33.4637 12.1582 34.0098 11.6094ZM22.81 17.2092L25.6099 14.4093C26.1559 13.8634 27.0435 13.8634 27.5895 14.4093C28.1354 14.9581 28.1354 15.8428 27.5895 16.3889L24.7896 19.1888C24.5179 19.4632 24.1596 19.6003 23.8013 19.6003C23.4429 19.6003 23.0844 19.4632 22.81 19.1888C22.2641 18.6429 22.2641 17.758 22.81 17.2092ZM11.6103 20.0092C12.1562 19.4633 13.0438 19.4633 13.5899 20.0092L16.3898 22.8091C16.9357 23.3579 16.9357 24.2427 16.3898 24.7887C16.1181 25.0631 15.7597 25.2003 15.4014 25.2003C15.0431 25.2003 14.6846 25.0631 14.4102 24.7887L11.6103 21.9888C11.0643 21.4428 11.0643 20.558 11.6103 20.0092Z" fill="var(--fill-0, #F3274C)"/>
<path id="Vector_3" d="M4.20177 33.6001C3.42616 33.6001 2.80175 34.2273 2.80175 35.0001C2.80175 35.7729 3.42616 36.4002 4.20177 36.4002H26.268L42.7736 44.6515C42.9724 44.7523 43.1851 44.7999 43.4007 44.7999C43.762 44.7999 44.1203 44.6599 44.3891 44.3884L52.3802 36.4002H65.8003C66.573 36.4002 67.2003 35.773 67.2003 35.0001C67.2003 34.2274 66.5732 33.6001 65.8003 33.6001H4.20177Z" fill="var(--fill-0, #F3274C)"/>
<path id="Vector_4" d="M5.60166 50.3997H64.4002C67.7994 50.3997 70.4957 47.359 69.9217 43.8535C69.4681 41.1012 66.8754 39.2001 64.0866 39.2001H55.5189L45.9319 48.7871C45.0806 49.6383 43.7786 49.851 42.7007 49.3107L22.4768 39.2002H5.91243C3.12373 39.2002 0.530955 41.1013 0.077315 43.8536C-0.496639 47.3589 2.2025 50.3997 5.60166 50.3997Z" fill="var(--fill-0, #F3274C)"/>
</g>
</svg>
